<?xml version="1.0" standalone="no"?>
<!DOCTYPE svg PUBLIC "-//W3C//DTD SVG 20010904//EN"
 "http://www.w3.org/TR/2001/REC-SVG-20010904/DTD/svg10.dtd">
<svg version="1.0" xmlns="http://www.w3.org/2000/svg"
 width="248.000000pt" height="248.000000pt" viewBox="0 0 248.000000 248.000000"
 preserveAspectRatio="xMidYMid meet">
<metadata>
Created by potrace 1.14, written by Peter Selinger 2001-2017
</metadata>
<g transform="translate(0.000000,248.000000) scale(0.100000,-0.100000)"
fill="#000000" stroke="none">
<path d="M1135 2380 c-3 -5 -3 -10 2 -10 4 0 1 -5 -7 -11 -12 -8 -12 -10 -1
-7 8 2 15 12 17 21 3 19 -2 22 -11 7z"/>
<path d="M1175 2381 c-3 -5 -2 -12 3 -15 5 -3 9 1 9 9 0 17 -3 19 -12 6z"/>
<path d="M1055 2360 c-3 -5 -1 -10 4 -10 6 0 11 5 11 10 0 6 -2 10 -4 10 -3 0
-8 -4 -11 -10z"/>
<path d="M1092 2349 c-7 -11 -18 -17 -24 -13 -7 4 -8 3 -4 -5 4 -6 10 -9 14
-7 4 2 15 -2 25 -9 10 -7 14 -16 9 -19 -6 -3 -13 1 -16 10 -3 8 -11 12 -16 9
-6 -4 -18 -1 -27 7 -10 8 -14 8 -10 1 4 -7 0 -13 -10 -16 -17 -4 -17 -5 0 -6
9 0 17 -6 17 -11 0 -13 -32 -9 -43 5 -5 6 -7 3 -3 -7 3 -10 1 -18 -5 -18 -6 0
-7 -5 -4 -10 5 -8 12 -7 23 2 15 12 16 11 3 -5 -10 -12 -17 -14 -26 -7 -21 17
-52 20 -52 4 0 -10 4 -11 13 -3 7 6 14 6 18 1 3 -6 -1 -13 -10 -16 -23 -9 -32
-7 -37 7 -2 6 -3 4 -2 -5 3 -20 -11 -24 -18 -5 -2 7 -3 6 -3 -3 1 -9 12 -16
26 -16 14 -1 30 -3 35 -4 6 -1 14 -2 18 -1 5 1 5 -4 2 -10 -5 -7 -10 -8 -18 0
-7 7 -14 5 -24 -7 -12 -16 -12 -15 -6 3 6 18 5 18 -10 6 -9 -7 -14 -17 -11
-22 9 -15 -13 -10 -26 6 -11 13 -10 14 6 9 15 -6 17 -4 7 6 -6 7 -16 9 -23 5
-13 -8 -10 -46 5 -58 6 -4 -3 -5 -19 -3 -16 3 -32 9 -35 14 -10 14 -50 21 -58
10 -3 -6 -1 -8 5 -4 16 10 57 -53 43 -67 -8 -8 -11 -8 -11 1 0 7 -5 12 -10 12
-7 0 -7 -6 0 -20 6 -11 8 -20 6 -20 -3 0 -15 18 -26 40 -23 46 -26 48 -26 21
0 -11 5 -17 10 -14 5 4 7 -1 3 -11 -4 -9 -3 -15 2 -12 5 3 11 -3 14 -15 4 -15
2 -18 -7 -10 -7 6 -16 8 -19 4 -4 -3 -7 2 -7 13 -1 18 -1 18 -11 1 -8 -14 -8
-22 0 -30 6 -6 11 -16 11 -21 0 -6 -4 -5 -9 2 -7 11 -13 9 -31 -10 -15 -15
-21 -18 -17 -6 7 20 -25 30 -57 18 -24 -9 -31 -39 -12 -53 6 -5 2 -7 -11 -4
-13 3 -23 1 -23 -5 0 -5 -4 -6 -10 -3 -6 3 -7 -1 -3 -10 5 -14 8 -14 15 -3 8
10 9 9 5 -3 -3 -9 0 -22 6 -29 8 -9 9 -11 1 -7 -7 4 -14 -2 -17 -13 -3 -11
-10 -20 -16 -20 -7 0 -6 9 4 24 14 21 14 24 0 30 -22 8 -25 8 -25 -5 0 -5 5
-7 10 -4 6 3 10 -1 10 -9 0 -9 -6 -13 -14 -10 -8 3 -17 1 -21 -5 -3 -7 0 -8 9
-5 10 4 13 0 11 -13 -2 -10 -4 -20 -4 -23 -1 -3 -6 2 -11 10 -5 8 -10 10 -10
4 0 -20 13 -23 41 -9 42 22 49 18 10 -6 -18 -11 -40 -18 -47 -15 -7 3 -16 0
-20 -6 -4 -7 -3 -8 4 -4 7 4 12 2 12 -4 0 -6 4 -9 9 -6 5 3 15 -2 22 -12 13
-15 12 -16 -3 -3 -11 8 -18 9 -18 3 0 -6 8 -16 18 -22 15 -10 15 -10 0 -8 -9
2 -23 -5 -30 -15 -13 -18 -14 -17 -14 2 0 11 3 18 7 15 4 -2 6 4 5 13 -3 20
-21 28 -31 14 -4 -7 1 -8 12 -4 15 6 16 4 6 -9 -7 -8 -10 -18 -6 -21 3 -4 0
-13 -7 -22 -10 -12 -16 -13 -29 -3 -14 12 -14 11 -2 -4 11 -14 11 -18 1 -18
-8 0 -10 -3 -7 -6 4 -4 13 -1 22 6 20 16 19 1 -1 -28 -8 -12 -20 -19 -26 -16
-7 4 -8 2 -4 -4 4 -7 1 -12 -6 -12 -10 0 -10 -2 1 -9 19 -12 43 -2 37 16 -4 9
-2 11 6 7 6 -4 8 -3 5 3 -4 6 0 16 8 23 12 10 13 16 4 27 -10 11 -9 12 5 7 20
-8 20 -18 1 -34 -8 -7 -12 -16 -10 -21 3 -4 -3 -17 -15 -29 -11 -11 -21 -31
-22 -44 -1 -14 -6 -24 -11 -23 -5 1 -12 -4 -15 -12 -3 -9 0 -11 8 -6 8 5 11 4
6 -3 -4 -6 -13 -9 -21 -6 -12 5 -11 10 5 31 26 34 25 41 -7 41 -21 0 -23 -2
-9 -10 23 -13 3 -50 -22 -41 -9 3 -5 -4 10 -16 17 -14 25 -28 21 -38 -5 -13
-8 -12 -18 7 -10 20 -13 20 -18 5 -10 -25 -8 -32 4 -15 9 12 10 11 6 -8 -3
-12 -1 -20 3 -17 5 3 11 1 14 -4 4 -5 2 -13 -4 -16 -8 -5 -7 -11 1 -21 10 -12
10 -15 -2 -12 -8 2 -13 -4 -11 -14 1 -9 -2 -19 -8 -23 -7 -4 -7 -13 1 -27 8
-14 8 -23 0 -31 -16 -16 -13 -31 3 -18 11 9 16 9 22 0 5 -8 3 -9 -6 -4 -10 6
-12 4 -7 -8 4 -12 1 -15 -11 -11 -9 2 0 -4 21 -14 33 -17 36 -20 18 -25 -13
-3 -19 -1 -14 5 3 6 1 8 -5 4 -6 -3 -13 -2 -17 4 -3 5 -10 10 -16 10 -5 0 -1
-8 10 -19 10 -10 27 -18 37 -18 11 0 30 -5 44 -11 18 -8 20 -11 8 -11 -24 -1
-34 2 -31 11 3 8 -37 1 -46 -8 -3 -4 2 -4 11 -1 17 6 35 -7 21 -16 -5 -2 -3
-2 4 -1 16 4 26 -13 13 -19 -6 -3 -5 -4 2 -3 7 2 12 8 11 14 -2 6 7 9 20 6 12
-3 27 -6 34 -6 7 -1 11 -4 10 -7 0 -3 2 -16 7 -28 7 -22 8 -22 34 -6 l27 17
-18 -21 c-18 -21 -18 -21 2 -16 12 3 21 9 21 13 0 5 6 7 13 6 23 -3 36 -17 31
-31 -4 -8 -11 -12 -16 -9 -6 4 -6 9 2 14 9 5 9 9 1 14 -6 4 -11 2 -11 -4 0 -6
-5 -8 -11 -5 -6 4 -5 -2 3 -14 7 -12 17 -19 23 -16 5 3 18 8 28 11 9 4 17 11
17 18 0 7 3 6 9 -2 11 -18 42 -22 61 -9 8 6 12 7 8 3 -13 -15 13 -38 27 -26 9
8 14 7 18 -3 6 -16 -24 -16 -45 0 -15 11 -64 10 -76 -2 -4 -4 -1 -10 6 -12 6
-3 9 -9 6 -15 -4 -6 1 -6 13 1 16 8 27 5 51 -13 18 -13 28 -27 24 -32 -4 -4 0
-4 8 1 8 6 35 10 60 10 25 0 49 5 53 10 5 6 7 3 3 -7 -3 -10 -1 -18 5 -18 6 0
7 -5 3 -12 -4 -7 -3 -8 4 -4 6 4 8 14 5 24 -3 9 -3 14 2 10 7 -7 14 -38 17
-77 1 -10 5 -9 14 4 15 20 9 39 -8 29 -7 -4 -8 -2 -4 5 4 6 12 9 17 6 5 -4 9
-1 9 6 0 7 9 1 21 -12 12 -13 24 -23 28 -22 4 1 8 -4 8 -12 0 -8 -4 -12 -9 -9
-4 3 -8 -1 -8 -8 0 -10 -3 -9 -9 2 -6 8 -8 17 -5 21 2 4 1 10 -4 13 -4 2 -13
-8 -19 -25 -7 -17 -8 -31 -2 -35 5 -3 9 -2 8 3 -1 4 -1 15 0 23 1 13 3 13 10
0 6 -8 7 -19 4 -25 -3 -5 0 -4 8 2 7 7 16 13 20 13 11 0 20 -31 12 -43 -11
-18 -12 -38 -2 -31 5 3 7 9 4 14 -3 5 -1 12 5 15 6 4 26 -7 46 -24 19 -17 30
-31 24 -31 -6 0 -9 -4 -6 -8 2 -4 1 -14 -3 -21 -6 -9 -11 -10 -15 -2 -4 6 -2
11 5 11 8 0 9 3 0 13 -6 8 -9 16 -7 18 2 2 -7 5 -20 5 -13 1 -24 -2 -24 -7 0
-5 3 -8 8 -8 18 3 32 -2 32 -12 0 -5 -6 -7 -12 -3 -8 5 -8 1 2 -12 8 -10 16
-21 17 -23 1 -2 10 2 18 9 12 10 18 11 28 1 9 -10 8 -11 -7 -5 -13 5 -17 4
-12 -4 4 -7 1 -12 -7 -12 -19 0 -29 -24 -15 -38 6 -6 6 -12 -1 -16 -6 -4 -11
-1 -11 6 0 9 -3 9 -10 -2 -12 -19 -13 -33 -1 -26 11 7 63 -59 54 -68 -4 -3 0
-6 8 -6 11 0 11 -2 -1 -10 -13 -8 -12 -12 7 -25 13 -9 23 -20 23 -25 0 -4 -13
4 -30 18 -18 16 -25 29 -19 33 8 5 8 8 0 13 -6 4 -8 12 -5 18 4 6 3 8 -3 5 -6
-4 -9 -18 -8 -32 2 -14 -1 -25 -6 -25 -5 0 -9 -5 -9 -11 0 -8 5 -8 15 1 18 15
20 -1 3 -18 -8 -8 -8 -15 1 -26 8 -10 9 -16 1 -21 -5 -3 -10 -12 -9 -18 0 -9
2 -8 6 1 2 6 9 9 14 6 6 -3 5 -12 -2 -21 -8 -9 -9 -17 -3 -21 23 -16 36 -69
22 -89 -6 -7 -3 -15 9 -22 13 -7 14 -10 4 -11 -8 0 -11 -3 -8 -7 4 -3 2 -12
-4 -19 -7 -9 -7 -19 0 -33 8 -14 8 -22 -1 -27 -6 -4 -8 -3 -5 3 4 6 -1 17 -10
24 -12 10 -14 10 -9 2 4 -8 2 -13 -5 -13 -7 0 -5 -6 6 -13 17 -13 17 -15 -6
-32 -15 -11 -18 -15 -6 -11 13 4 20 -1 27 -18 5 -13 14 -27 20 -31 9 -6 9 -2
1 13 -15 28 -14 30 12 42 21 11 22 11 2 -5 -12 -9 -16 -19 -10 -23 15 -11 17
-42 3 -42 -8 0 -6 -5 5 -11 9 -5 21 -8 26 -5 5 3 15 -2 22 -11 8 -9 9 -14 2
-10 -14 9 -43 -2 -43 -15 0 -6 7 -5 16 3 13 10 17 10 24 -2 8 -12 11 -12 22 0
7 8 8 11 3 8 -6 -3 -11 3 -11 14 0 18 2 18 12 5 12 -17 29 -22 19 -6 -3 5 -1
10 4 10 16 0 13 -16 -4 -30 -8 -7 -15 -17 -15 -22 0 -5 7 -2 16 6 8 9 20 16
25 16 6 0 7 5 3 12 -5 7 -3 8 6 3 10 -6 8 -12 -9 -26 -20 -17 -21 -18 -2 -16
11 0 18 4 15 8 -2 4 3 10 12 13 24 9 36 7 29 -4 -4 -6 -11 -8 -16 -5 -5 4 -9
1 -9 -4 0 -14 17 -14 25 -1 3 5 12 7 19 4 8 -3 17 0 21 6 5 8 11 7 23 -2 12
-10 14 -10 8 -1 -4 7 -16 18 -26 23 -16 8 -18 8 -14 -5 4 -8 1 -15 -6 -15 -6
0 -9 4 -5 9 3 5 0 13 -6 17 -8 5 -9 3 -4 -6 5 -9 4 -11 -3 -6 -17 10 -15 29 3
23 8 -4 17 -2 21 4 4 7 12 5 22 -4 25 -21 46 -32 39 -20 -4 6 0 19 8 29 17 23
19 34 5 34 -6 0 -9 -3 -8 -7 2 -13 -13 -43 -22 -43 -5 0 -3 12 5 27 8 15 12
30 10 33 -3 4 4 15 15 25 14 13 20 14 20 5 0 -7 3 -11 6 -7 14 13 -7 27 -27
17 -13 -7 -19 -7 -19 0 0 5 8 11 18 12 9 0 22 2 29 2 6 1 15 5 20 9 4 5 3 8
-2 7 -21 -5 -32 1 -32 15 0 10 6 13 19 9 10 -3 18 -1 18 4 0 5 -15 9 -32 8
-27 -1 -33 3 -34 19 0 11 3 25 8 31 11 15 -17 38 -34 29 -7 -4 -5 0 4 8 13 10
14 17 6 25 -8 8 -4 10 15 6 16 -2 27 0 27 6 0 6 -4 9 -9 5 -5 -3 -17 2 -26 11
-18 18 -7 40 30 54 16 7 17 9 3 9 -12 1 -17 8 -15 24 1 13 -3 21 -10 19 -7 -1
-13 3 -13 9 0 5 -5 7 -12 3 -7 -4 -8 -3 -4 5 4 6 12 8 18 5 6 -4 9 -1 6 7 -3
8 2 19 11 26 14 10 13 11 -6 7 -15 -4 -25 0 -32 15 -10 18 -9 20 6 14 16 -6
17 -5 3 13 -14 18 -14 18 3 5 13 -10 15 -17 6 -27 -8 -10 -8 -14 0 -14 6 0 11
5 11 11 0 5 5 7 10 4 6 -3 1 10 -11 29 -11 19 -18 40 -14 46 3 5 0 10 -7 10
-10 0 -10 2 1 9 8 5 9 11 3 15 -14 9 -11 44 5 50 7 3 15 0 19 -6 4 -6 3 -8 -3
-5 -6 4 -14 0 -17 -9 -9 -23 -7 -31 3 -15 6 10 13 11 29 2 14 -7 23 -8 27 -1
4 6 3 10 -2 9 -4 -1 -15 -1 -23 1 -11 1 -9 4 5 10 17 7 17 9 3 9 -10 1 -18 6
-18 12 0 6 9 9 20 6 12 -3 18 -1 14 5 -3 5 -14 8 -23 5 -11 -3 -17 2 -18 14
-1 11 5 19 13 19 8 0 14 -4 14 -10 0 -5 5 -10 12 -10 9 0 9 3 0 12 -9 9 -8 16
5 30 9 10 12 18 7 18 -5 0 -2 5 6 10 11 7 11 10 2 10 -7 0 -10 5 -7 10 5 8 11
7 21 -1 10 -8 14 -8 14 0 0 6 -4 11 -10 11 -5 0 -10 5 -10 11 0 5 4 8 9 5 5
-3 12 1 15 9 4 12 10 14 25 5 11 -5 22 -6 25 -2 3 5 0 9 -7 10 -7 0 -22 3 -35
6 -15 3 -20 1 -16 -6 4 -6 3 -8 -3 -5 -9 6 -36 -35 -37 -57 -1 -5 -9 -10 -18
-12 -15 -2 -15 1 4 26 12 16 17 33 13 41 -5 7 -4 10 3 5 6 -3 18 4 26 16 9 12
16 16 16 9 0 -11 3 -11 14 -1 8 6 13 17 10 25 -3 7 -1 16 4 19 5 3 9 -2 8 -11
0 -9 5 -18 13 -21 9 -3 11 0 6 8 -6 9 -4 11 5 5 10 -6 12 -4 8 7 -5 12 0 14
20 12 15 -2 35 -1 45 2 15 5 16 8 5 22 -11 14 -10 14 8 -1 24 -20 40 -11 21
12 -10 14 -10 14 4 4 12 -10 18 -10 29 0 10 9 11 9 6 0 -4 -7 -2 -13 4 -13 6
0 9 -4 5 -9 -3 -5 0 -13 6 -17 8 -4 9 -3 5 4 -4 7 -1 12 6 12 9 0 9 3 -2 10
-13 9 -12 13 9 30 33 28 51 26 45 -6 -4 -22 -3 -23 10 -12 8 7 10 15 4 17 -5
1 -2 12 8 22 14 16 15 21 3 36 -9 11 -10 14 -1 9 6 -4 12 -2 12 3 0 6 5 11 11
11 8 0 7 -6 -2 -17 -7 -10 -9 -15 -4 -10 4 4 20 0 34 -9 l26 -15 -24 20 c-13
12 -20 22 -17 22 3 1 11 3 16 4 6 1 15 3 21 4 5 0 7 6 3 12 -4 8 -9 7 -15 -2
-7 -11 -9 -11 -9 1 0 13 -1 13 -11 0 -9 -13 -10 -13 -6 0 2 8 9 16 15 16 25 3
27 5 15 12 -8 5 -9 13 -3 22 8 12 10 11 11 -5 1 -11 1 -23 1 -27 -1 -3 5 -9
14 -12 12 -4 12 -2 4 14 -7 14 -7 20 0 20 5 0 10 5 10 11 0 5 -4 7 -10 4 -5
-3 -10 -1 -10 4 0 6 5 11 11 11 5 0 8 4 4 9 -3 5 4 16 16 24 15 11 17 16 7 21
-7 3 -2 3 11 0 15 -4 21 -2 17 4 -3 6 -1 14 5 18 8 5 9 3 4 -6 -5 -8 -3 -11 6
-8 8 3 13 11 11 17 -1 7 2 10 8 6 5 -3 10 -2 10 4 0 5 -6 12 -12 15 -7 3 -4 4
6 3 10 -1 21 4 24 12 3 8 0 11 -7 7 -7 -5 -9 -1 -4 10 6 15 7 15 15 0 7 -13 3
-26 -16 -51 -21 -27 -23 -34 -10 -39 8 -3 12 -2 9 4 -7 11 19 53 27 45 3 -3 5
7 6 22 0 49 1 51 24 45 l22 -5 -22 23 c-20 22 -21 25 -5 42 9 10 21 18 27 18
6 0 2 -7 -8 -15 -11 -8 -15 -15 -9 -15 13 0 26 18 29 38 1 6 -2 10 -6 7 -12
-7 -33 33 -26 50 3 9 0 12 -9 8 -11 -4 -12 -10 -5 -23 7 -14 6 -18 -5 -16 -8
1 -21 8 -28 16 -10 12 -9 12 6 1 10 -8 17 -9 17 -3 0 6 -8 17 -17 24 -24 18
-26 33 -6 50 9 7 14 8 11 3 -4 -6 2 -11 13 -11 19 0 18 1 -3 19 -21 17 -21 18
-3 13 20 -6 20 -6 1 9 -11 8 -16 15 -12 15 5 0 3 7 -4 15 -10 12 -9 15 6 16
18 0 18 1 1 8 -20 7 -21 20 -3 36 6 6 10 9 8 9 -6 -3 -72 66 -72 74 0 5 6 14
13 21 8 9 8 12 0 7 -6 -3 -13 1 -15 11 -3 15 -5 14 -10 -5 -3 -12 -2 -20 3
-16 16 10 10 -3 -8 -17 -10 -7 -15 -9 -10 -4 4 4 -3 19 -15 32 -21 22 -22 22
-42 6 -18 -15 -18 -14 2 8 27 31 28 46 2 54 -11 4 -18 11 -14 16 3 6 12 5 22
-3 12 -10 14 -10 8 0 -4 7 -1 12 8 12 9 0 16 4 16 9 0 16 -23 18 -49 5 -14 -7
-28 -11 -33 -8 -5 3 -17 -5 -28 -18 -15 -19 -21 -21 -32 -10 -11 11 -10 12 7
6 18 -7 18 -6 6 9 -11 13 -17 15 -28 6 -7 -7 -15 -10 -17 -8 -2 2 9 14 25 27
19 16 30 19 35 11 4 -7 3 -9 -3 -6 -5 3 -10 0 -10 -8 0 -11 4 -12 14 -4 7 6
10 15 7 21 -3 5 -1 15 6 23 9 11 6 13 -13 11 -13 -2 -29 -6 -35 -10 -19 -11
-14 5 6 20 16 13 16 14 -1 8 -10 -4 -17 -3 -16 2 3 20 -2 34 -12 34 -6 0 -7
-5 -2 -12 12 -20 12 -38 1 -38 -6 0 -7 7 -4 15 3 9 -1 18 -9 22 -12 4 -13 9
-4 19 6 8 15 11 20 8 5 -3 9 -2 9 2 0 9 -53 54 -63 54 -5 0 -6 4 -3 9 3 5 -7
9 -22 10 -48 1 -61 4 -56 13 3 4 0 8 -5 8 -6 0 -11 5 -11 12 0 6 9 3 20 -7 11
-10 20 -14 20 -9 0 5 5 2 10 -6 9 -14 10 -13 10 18 0 4 -6 7 -12 7 -7 1 -12 6
-10 13 1 7 -2 12 -8 12 -5 0 -10 -4 -10 -9 0 -6 -9 -8 -20 -6 -11 2 -24 -4
-30 -13 -9 -15 -10 -15 -8 3 2 16 -3 20 -27 20 -16 0 -41 8 -54 17 -23 16 -23
17 -3 15 11 0 18 -6 15 -12 -4 -5 -3 -7 2 -3 4 4 14 3 22 -3 9 -9 13 -8 13 0
0 8 5 9 19 2 10 -6 22 -7 26 -3 5 4 5 2 2 -5 -5 -7 0 -9 12 -6 11 3 22 12 26
20 4 12 2 13 -8 5 -7 -6 -24 -9 -38 -6 -13 3 -32 6 -42 6 -9 -1 -15 3 -13 7 3
4 -9 6 -27 5 -49 -2 -50 -3 -36 -21 12 -14 11 -14 -13 1 -26 17 -28 17 -34 1
-5 -13 -9 -14 -15 -3 -5 7 -9 8 -9 3 0 -6 -10 -11 -22 -12 -22 -2 -22 -1 -3
10 11 7 21 23 22 37 3 25 3 25 -7 3 -8 -19 -13 -21 -34 -14 -13 6 -27 7 -32 3
-4 -4 -4 -2 0 5 4 7 12 11 19 9 7 -1 9 -1 4 1 -4 3 -5 8 -3 12 3 4 -1 8 -9 8
-8 0 -12 -4 -9 -9 3 -4 -2 -8 -10 -8 -9 0 -15 -3 -15 -7 3 -19 -2 -33 -11 -33
-6 0 -9 3 -8 8 5 14 -27 49 -44 46 -9 -1 -22 4 -29 12 -9 12 -15 12 -27 2 -13
-10 -14 -10 -8 0 4 7 2 12 -5 12 -8 0 -8 5 2 18 13 16 12 16 -6 1 -11 -8 -30
-16 -43 -17 -20 -1 -21 2 -11 14 6 8 10 16 8 19 -3 2 -10 -5 -17 -16z m-8 -52
c4 4 4 -1 0 -10 -3 -10 -7 -17 -8 -15 -1 2 -8 12 -16 23 -14 18 -13 19 1 8 9
-7 19 -10 23 -6z m160 -23 c3 -8 2 -12 -4 -9 -6 3 -10 10 -10 16 0 14 7 11 14
-7z m131 -74 c10 -11 16 -20 13 -20 -3 0 -13 9 -23 20 -10 11 -16 20 -13 20 3
0 13 -9 23 -20z m-430 -40 c3 -5 1 -10 -4 -10 -6 0 -11 5 -11 10 0 6 2 10 4
10 3 0 8 -4 11 -10z m755 -21 c0 -5 4 -8 9 -5 4 3 16 -3 26 -14 10 -12 13 -20
7 -20 -21 0 -27 5 -24 19 2 7 0 11 -5 8 -4 -3 -17 1 -28 9 -16 12 -17 14 -2
14 9 0 17 -5 17 -11z m-826 -58 c-3 -4 -7 -4 -9 -1 -1 3 -13 -4 -26 -15 -13
-11 -18 -13 -11 -4 6 9 10 18 7 20 -2 3 7 5 20 5 13 0 22 -2 19 -5z m13 -26
c0 -8 -4 -12 -9 -9 -5 3 -6 10 -3 15 9 13 12 11 12 -6z m824 -12 c13 -16 12
-17 -3 -4 -10 7 -18 15 -18 17 0 8 8 3 21 -13z m-1035 -34 c1 -13 0 -18 -2
-12 -4 8 -15 11 -30 7 -18 -5 -24 -3 -22 7 3 15 27 29 42 25 5 -1 10 -13 12
-27z m1075 -12 c-10 -9 -11 -8 -5 6 3 10 9 15 12 12 3 -3 0 -11 -7 -18z
m-1021 1 c0 -6 -3 -8 -7 -5 -3 4 -13 1 -22 -6 -14 -11 -14 -10 -2 6 15 20 31
22 31 5z m1160 -79 c0 -6 -9 -8 -21 -4 -14 5 -19 4 -15 -4 5 -7 1 -9 -8 -5 -9
3 -13 10 -10 15 7 13 54 11 54 -2z m-43 -56 c-4 -3 -2 -11 3 -18 7 -8 5 -12
-4 -12 -8 0 -12 7 -11 16 5 22 4 21 12 21 3 0 3 -3 0 -7z m61 -5 c-2 -7 3 -12
10 -10 6 1 12 -2 12 -8 0 -5 -4 -10 -9 -10 -13 0 -32 26 -24 33 10 10 13 8 11
-5z m-1267 -45 c13 -16 12 -17 -3 -4 -10 7 -18 15 -18 17 0 8 8 3 21 -13z
m1370 -35 c1 -7 2 -26 3 -43 1 -16 5 -36 10 -44 6 -10 5 -12 -2 -7 -7 4 -12 2
-12 -3 0 -6 4 -11 8 -11 5 0 9 -7 9 -15 0 -8 -4 -12 -8 -9 -4 2 -9 0 -11 -6
-2 -6 -9 0 -17 12 -13 22 -13 22 4 8 17 -14 18 -13 11 5 -4 11 -9 25 -10 30
-1 6 -5 16 -10 23 -4 7 -5 16 -2 19 3 4 6 1 6 -6 0 -7 4 -9 10 -6 6 4 4 15 -5
29 -14 21 -12 36 7 36 4 0 9 -6 9 -12z m-1464 -63 c0 -8 -4 -12 -9 -9 -5 3 -6
10 -3 15 9 13 12 11 12 -6z m1420 -84 c0 -11 -5 -18 -9 -15 -4 3 -5 11 -1 19
7 21 12 19 10 -4z m32 -55 c9 -11 9 -16 -1 -22 -7 -4 -10 -4 -6 1 4 4 3 14 -3
22 -6 7 -9 13 -6 13 2 0 10 -6 16 -14z m-1544 -96 c3 -6 -1 -7 -9 -4 -18 7
-21 14 -7 14 6 0 13 -4 16 -10z m-5 -35 c0 -2 -6 -8 -13 -14 -10 -8 -14 -7
-14 2 0 8 6 14 14 14 7 0 13 -1 13 -2z m1529 -68 c-2 -1 -13 -9 -24 -17 -19
-14 -19 -14 -6 3 7 9 18 17 24 17 6 0 8 -1 6 -3z m-71 -62 c-3 -3 -9 2 -12 12
-6 14 -5 15 5 6 7 -7 10 -15 7 -18z m-1342 -100 c-3 -23 -12 -26 -13 -5 -1 11
2 20 7 20 4 0 7 -7 6 -15z m119 -24 c3 -5 2 -12 -3 -15 -5 -3 -9 1 -9 9 0 17
3 19 12 6z m1130 -40 c3 -5 2 -12 -3 -15 -5 -3 -9 1 -9 9 0 17 3 19 12 6z
m-952 -24 c4 3 7 4 7 0 0 -17 -20 -14 -36 6 -19 22 -19 22 2 4 11 -9 24 -14
27 -10z m102 5 c-3 -3 -11 0 -18 7 -9 10 -8 11 6 5 10 -3 15 -9 12 -12z m659
-58 c3 -8 2 -12 -4 -9 -6 3 -10 10 -10 16 0 14 7 11 14 -7z m-533 -31 c13 -16
12 -17 -3 -4 -10 7 -18 15 -18 17 0 8 8 3 21 -13z m-18 -59 c7 1 8 1 4 -2 -4
-2 -3 -10 4 -18 6 -8 8 -14 4 -14 -12 0 -34 33 -34 50 1 11 2 11 6 -2 2 -9 10
-16 16 -14z m91 -30 c3 -8 2 -12 -4 -9 -6 3 -10 10 -10 16 0 14 7 11 14 -7z
m266 12 c0 -3 -4 -8 -10 -11 -5 -3 -10 -1 -10 4 0 6 5 11 10 11 6 0 10 -2 10
-4z m-249 -53 c13 -17 13 -17 -6 -3 -11 8 -22 16 -24 17 -2 2 0 3 6 3 6 0 17
-8 24 -17z m279 -17 c-6 -9 -19 -12 -28 -8 -17 6 -14 7 37 21 2 1 -2 -5 -9
-13z m-310 -36 c0 -5 -5 -10 -11 -10 -5 0 -7 5 -4 10 3 6 8 10 11 10 2 0 4 -4
4 -10z m252 -32 c-8 -8 -9 -4 -5 13 4 13 8 18 11 10 2 -7 -1 -18 -6 -23z
m-216 -30 c4 -7 3 -10 -1 -5 -5 4 -18 -1 -29 -10 -21 -18 -21 -18 -2 5 22 26
23 26 32 10z m-60 -28 c-2 -20 2 -34 13 -40 9 -5 11 -10 5 -10 -16 0 -37 27
-30 39 4 5 2 12 -4 16 -11 7 -4 25 10 25 5 0 8 -14 6 -30z m61 -5 c0 -8 -4
-12 -8 -9 -4 2 -10 0 -14 -6 -3 -5 -11 -10 -17 -10 -7 0 26 35 38 40 0 0 1 -7
1 -15z m184 -2 c13 -16 12 -17 -3 -4 -17 13 -22 21 -14 21 2 0 10 -8 17 -17z
m13 -62 c-9 -9 -34 -9 -34 -1 0 5 9 8 20 7 10 -1 17 -3 14 -6z m-254 -106
c-11 -13 -10 -14 5 -9 13 5 16 3 13 -7 -3 -8 2 -22 11 -32 8 -10 11 -18 6 -17
-21 5 -27 -1 -16 -14 10 -12 8 -13 -9 -9 -15 4 -18 9 -11 16 7 7 7 15 0 24 -7
7 -8 13 -4 13 4 0 2 7 -5 15 -12 15 -6 35 12 35 6 0 6 -6 -2 -15z m293 -33 c2
7 4 1 3 -14 0 -14 -4 -24 -8 -21 -5 2 -8 -1 -8 -7 0 -6 -5 -8 -11 -4 -8 4 -7
9 2 14 10 7 10 12 -2 27 -13 16 -12 17 3 5 13 -10 17 -10 21 0z m-238 -62 c3
-5 1 -10 -4 -10 -6 0 -11 5 -11 10 0 6 2 10 4 10 3 0 8 -4 11 -10z m199 -26
c3 -8 2 -12 -4 -9 -6 3 -10 10 -10 16 0 14 7 11 14 -7z m29 -91 c-7 -2 -9 -12
-6 -21 6 -18 5 -17 -14 8 -10 13 -8 16 10 17 12 0 17 -1 10 -4z m-246 -55 c2
-18 0 -20 -7 -8 -12 18 -13 30 -2 30 4 0 9 -10 9 -22z m275 -23 c2 3 5 -1 5
-9 0 -18 -24 -10 -31 11 -5 12 -4 13 7 5 8 -7 16 -10 19 -7z m-289 -29 c-10
-13 -22 -22 -27 -19 -5 3 2 14 15 24 32 24 33 24 12 -5z"/>
<path d="M1996 1767 c3 -10 9 -15 12 -12 3 3 0 11 -7 18 -10 9 -11 8 -5 -6z"/>
<path d="M1174 2337 c-4 -7 -3 -9 1 -4 5 4 17 -1 27 -10 17 -15 18 -15 13 -1
-9 22 -33 30 -41 15z"/>
<path d="M1227 2329 c6 -23 9 -24 16 -5 3 8 0 17 -7 19 -10 4 -12 -1 -9 -14z"/>
<path d="M1257 2328 c-3 -8 4 -25 14 -39 11 -13 18 -19 17 -14 -1 6 3 21 10
35 12 22 11 23 -1 8 -14 -18 -33 -25 -23 -10 2 4 1 14 -3 21 -7 10 -9 10 -14
-1z"/>
<path d="M1354 2316 c1 -8 5 -18 8 -22 4 -3 5 1 4 10 -1 8 -5 18 -8 22 -4 3
-5 -1 -4 -10z"/>
<path d="M1473 2295 c0 -8 4 -12 9 -9 5 3 6 10 3 15 -9 13 -12 11 -12 -6z"/>
<path d="M975 2280 c3 -5 8 -10 11 -10 2 0 4 5 4 10 0 6 -5 10 -11 10 -5 0 -7
-4 -4 -10z"/>
<path d="M1404 2282 c3 -5 1 -12 -6 -14 -8 -3 -9 -6 -1 -11 6 -4 13 0 17 8 3
8 0 17 -6 21 -6 4 -8 3 -4 -4z"/>
<path d="M1450 2281 c0 -7 -4 -9 -10 -6 -5 3 -10 1 -10 -4 0 -6 4 -11 9 -11
13 0 25 20 17 27 -3 4 -6 1 -6 -6z"/>
<path d="M1555 2281 c-3 -5 -2 -12 3 -15 5 -3 9 1 9 9 0 17 -3 19 -12 6z"/>
<path d="M1685 2180 c-3 -6 1 -7 9 -4 18 7 21 14 7 14 -6 0 -13 -4 -16 -10z"/>
<path d="M848 2173 c6 -2 9 -10 6 -15 -4 -7 -2 -8 5 -4 13 9 5 26 -12 25 -9 0
-8 -2 1 -6z"/>
<path d="M1730 2160 c0 -5 5 -10 11 -10 5 0 7 5 4 10 -3 6 -8 10 -11 10 -2 0
-4 -4 -4 -10z"/>
<path d="M786 2136 c3 -8 13 -17 22 -21 13 -5 13 -2 -3 15 -21 24 -26 25 -19
6z"/>
<path d="M707 2064 c6 -17 5 -17 -10 -5 -10 8 -19 12 -22 10 -8 -9 32 -27 44
-20 9 6 8 11 -4 21 -13 11 -14 10 -8 -6z"/>
<path d="M1810 2060 c0 -5 5 -10 11 -10 5 0 7 5 4 10 -3 6 -8 10 -11 10 -2 0
-4 -4 -4 -10z"/>
<path d="M575 2009 c-4 -6 -5 -12 -2 -15 2 -3 7 2 10 11 7 17 1 20 -8 4z"/>
<path d="M1865 1999 c-4 -6 -5 -12 -2 -15 2 -3 7 2 10 11 7 17 1 20 -8 4z"/>
<path d="M516 1942 c-3 -5 1 -9 9 -9 8 0 12 4 9 9 -3 4 -7 8 -9 8 -2 0 -6 -4
-9 -8z"/>
<path d="M1926 1906 c6 -15 4 -17 -7 -11 -8 5 -5 -1 5 -13 19 -22 32 -30 21
-13 -3 5 3 17 12 27 15 15 16 17 2 12 -9 -4 -22 -1 -28 5 -9 9 -10 8 -5 -7z"/>
<path d="M2006 1858 c3 -5 10 -6 15 -3 13 9 11 12 -6 12 -8 0 -12 -4 -9 -9z"/>
<path d="M1986 1842 c-3 -5 1 -9 9 -9 8 0 12 4 9 9 -3 4 -7 8 -9 8 -2 0 -6 -4
-9 -8z"/>
<path d="M2015 1821 c-3 -7 -1 -10 6 -9 7 2 13 -2 14 -9 0 -6 3 -14 7 -18 3
-4 5 0 4 9 -3 24 -22 40 -31 27z"/>
<path d="M434 1736 c1 -8 5 -18 8 -22 4 -3 5 1 4 10 -1 8 -5 18 -8 22 -4 3 -5
-1 -4 -10z"/>
<path d="M2076 1673 c-6 -14 -5 -15 5 -6 7 7 10 15 7 18 -3 3 -9 -2 -12 -12z"/>
<path d="M396 1618 c3 -5 10 -6 15 -3 13 9 11 12 -6 12 -8 0 -12 -4 -9 -9z"/>
<path d="M2031 1599 c5 -11 14 -17 20 -14 15 10 10 22 -11 28 -17 4 -18 2 -9
-14z"/>
<path d="M2091 1554 c0 -11 3 -14 6 -6 3 7 2 16 -1 19 -3 4 -6 -2 -5 -13z"/>
<path d="M2110 1566 c0 -2 7 -7 16 -10 8 -3 12 -2 9 4 -6 10 -25 14 -25 6z"/>
<path d="M355 1551 c-3 -5 -2 -12 3 -15 5 -3 9 1 9 9 0 17 -3 19 -12 6z"/>
<path d="M380 1490 c-19 -11 -31 -19 -27 -20 11 0 67 29 67 35 0 7 -1 7 -40
-15z"/>
<path d="M2135 1500 c-3 -5 -1 -10 4 -10 6 0 11 5 11 10 0 6 -2 10 -4 10 -3 0
-8 -4 -11 -10z"/>
<path d="M2100 1475 c-10 -12 -16 -13 -29 -3 -14 12 -14 11 -2 -4 17 -23 23
-23 39 2 14 24 10 26 -8 5z"/>
<path d="M384 1465 c-10 -8 -14 -15 -8 -15 6 0 17 7 24 15 16 19 9 19 -16 0z"/>
<path d="M377 1427 c4 -6 -2 -8 -15 -5 -12 4 -25 2 -28 -3 -3 -5 -2 -9 3 -8
22 4 43 -2 38 -11 -3 -5 0 -10 7 -10 9 0 9 -3 -2 -10 -9 -6 -10 -10 -3 -10 17
0 23 14 13 30 -5 8 -5 19 0 25 7 8 5 12 -5 12 -8 0 -11 -5 -8 -10z"/>
<path d="M2095 1420 c-3 -5 -1 -10 4 -10 6 0 11 5 11 10 0 6 -2 10 -4 10 -3 0
-8 -4 -11 -10z"/>
<path d="M2060 1400 c5 -10 6 -20 3 -24 -3 -3 -4 -6 -1 -6 3 0 12 8 19 17 12
14 12 16 0 8 -11 -6 -13 -4 -9 7 4 8 0 15 -7 15 -10 0 -11 -5 -5 -17z"/>
<path d="M360 1350 c6 -11 13 -20 16 -20 2 0 0 9 -6 20 -6 11 -13 20 -16 20
-2 0 0 -9 6 -20z"/>
<path d="M2034 1339 c-3 -6 -1 -16 6 -22 10 -9 11 -9 5 2 -4 8 -2 17 6 22 9 6
10 9 2 9 -6 0 -15 -5 -19 -11z"/>
<path d="M1951 1306 c-33 -19 -35 -41 -3 -43 22 -1 23 0 9 9 -18 10 -14 28 6
28 7 0 6 -4 -3 -11 -12 -9 -11 -9 5 -4 11 4 25 8 32 8 7 0 10 4 7 8 -2 5 -12
5 -21 2 -11 -4 -14 -3 -9 5 9 15 7 15 -23 -2z"/>
<path d="M347 1299 c7 -7 15 -10 18 -7 3 3 -2 9 -12 12 -14 6 -15 5 -6 -5z"/>
<path d="M376 1273 c-6 -14 -5 -15 5 -6 7 7 10 15 7 18 -3 3 -9 -2 -12 -12z"/>
<path d="M483 1211 c-9 -14 -8 -18 3 -18 7 0 11 4 8 9 -3 4 2 8 11 8 9 0 13
-4 10 -10 -3 -5 -1 -10 4 -10 17 0 13 18 -7 29 -14 7 -21 5 -29 -8z"/>
<path d="M1955 1220 c3 -5 8 -10 11 -10 2 0 4 5 4 10 0 6 -5 10 -11 10 -5 0
-7 -4 -4 -10z"/>
<path d="M527 1167 c-3 -8 1 -14 8 -14 7 0 11 6 8 14 -3 7 -6 13 -8 13 -2 0
-5 -6 -8 -13z"/>
<path d="M590 1156 c0 -2 8 -10 18 -17 15 -13 16 -12 3 4 -13 16 -21 21 -21
13z"/>
<path d="M670 1132 c-18 -15 -20 -19 -7 -19 10 0 15 3 12 5 -3 3 3 11 13 18 9
7 14 14 11 14 -4 0 -17 -8 -29 -18z"/>
<path d="M1830 1119 c0 -5 5 -7 10 -4 6 3 10 8 10 11 0 2 -4 4 -10 4 -5 0 -10
-5 -10 -11z"/>
<path d="M1754 1105 c-10 -8 -14 -14 -9 -15 15 0 40 18 34 24 -3 3 -14 -1 -25
-9z"/>
<path d="M730 1075 c5 -7 6 -16 2 -21 -4 -5 -3 -5 2 -1 15 12 15 34 0 34 -9 0
-11 -4 -4 -12z"/>
<path d="M1835 1080 c3 -5 8 -10 11 -10 2 0 4 5 4 10 0 6 -5 10 -11 10 -5 0
-7 -4 -4 -10z"/>
<path d="M1690 1065 c-7 -8 -16 -13 -20 -10 -5 3 -12 0 -16 -6 -4 -8 -3 -9 4
-5 7 4 12 2 12 -3 0 -6 5 -11 12 -11 6 0 8 3 5 7 -4 3 1 12 11 19 9 7 14 15
11 18 -3 4 -12 0 -19 -9z"/>
<path d="M859 1049 c-8 -5 -9 -9 -4 -10 6 0 21 -2 33 -5 15 -3 22 0 20 8 -5
14 -31 18 -49 7z"/>
<path d="M1593 1038 c-22 -28 -24 -38 -9 -32 9 3 13 10 10 15 -3 5 0 9 5 9 6
0 11 -5 11 -12 0 -6 3 -9 6 -5 3 3 2 13 -3 22 -8 13 -11 14 -20 3z"/>
<path d="M1706 1042 c-3 -5 1 -9 9 -9 8 0 12 4 9 9 -3 4 -7 8 -9 8 -2 0 -6 -4
-9 -8z"/>
<path d="M1633 1017 c-2 -16 0 -18 6 -8 5 7 14 10 20 7 6 -4 11 -5 11 -2 0 3
-8 10 -18 15 -14 8 -18 5 -19 -12z"/>
<path d="M850 1020 c0 -5 5 -10 11 -10 5 0 7 5 4 10 -3 6 -8 10 -11 10 -2 0
-4 -4 -4 -10z"/>
<path d="M910 1005 c0 -8 4 -15 8 -15 5 0 9 7 9 15 0 8 -4 15 -9 15 -4 0 -8
-7 -8 -15z"/>
<path d="M1536 1012 c-3 -5 1 -9 9 -9 8 0 12 4 9 9 -3 4 -7 8 -9 8 -2 0 -6 -4
-9 -8z"/>
<path d="M1586 978 c3 -5 10 -6 15 -3 13 9 11 12 -6 12 -8 0 -12 -4 -9 -9z"/>
<path d="M1015 940 c-3 -5 -1 -10 4 -10 6 0 11 5 11 10 0 6 -2 10 -4 10 -3 0
-8 -4 -11 -10z"/>
<path d="M1060 916 c0 -2 8 -10 18 -17 15 -13 16 -12 3 4 -13 16 -21 21 -21
13z"/>
<path d="M1056 837 c3 -10 9 -15 12 -12 3 3 0 11 -7 18 -10 9 -11 8 -5 -6z"/>
<path d="M1413 755 c0 -8 4 -12 9 -9 4 3 8 9 8 15 0 5 -4 9 -8 9 -5 0 -9 -7
-9 -15z"/>
<path d="M1423 732 c-10 -7 -10 -12 0 -25 11 -16 12 -15 12 8 0 14 0 25 0 25
0 0 -6 -4 -12 -8z"/>
<path d="M1090 700 c0 -5 5 -10 11 -10 5 0 7 5 4 10 -3 6 -8 10 -11 10 -2 0
-4 -4 -4 -10z"/>
<path d="M1060 686 c0 -2 8 -10 18 -17 15 -13 16 -12 3 4 -13 16 -21 21 -21
13z"/>
<path d="M1453 635 c0 -8 4 -12 9 -9 5 3 6 10 3 15 -9 13 -12 11 -12 -6z"/>
<path d="M1430 600 c0 -5 5 -10 10 -10 6 0 10 5 10 10 0 6 -4 10 -10 10 -5 0
-10 -4 -10 -10z"/>
<path d="M1428 496 c-17 -13 -14 -26 5 -26 6 0 7 3 4 7 -4 3 -2 12 4 20 14 16
9 16 -13 -1z"/>
<path d="M1096 478 c3 -5 10 -6 15 -3 13 9 11 12 -6 12 -8 0 -12 -4 -9 -9z"/>
<path d="M1450 480 c0 -5 5 -10 11 -10 5 0 7 5 4 10 -3 6 -8 10 -11 10 -2 0
-4 -4 -4 -10z"/>
<path d="M1116 462 c-3 -5 -3 -19 -1 -31 3 -18 1 -22 -13 -17 -14 5 -13 3 2
-9 21 -16 30 -45 15 -45 -5 0 -9 -5 -9 -11 0 -8 4 -8 14 0 15 12 16 28 3 48
-4 6 -3 14 2 18 5 3 8 15 6 27 -5 26 -11 32 -19 20z"/>
<path d="M1424 425 c1 -10 10 -23 20 -30 16 -13 16 -14 -1 -24 -17 -9 -17 -10
3 -8 14 1 20 8 20 23 0 15 -5 20 -15 17 -11 -3 -9 1 4 13 15 12 16 15 4 11 -9
-3 -21 -1 -27 5 -7 7 -10 5 -8 -7z"/>
<path d="M1430 338 c0 -11 12 -10 30 2 12 7 10 9 -8 7 -12 0 -22 -5 -22 -9z"/>
<path d="M1434 227 c-4 -7 -4 -9 1 -5 4 4 14 3 22 -3 8 -7 13 -8 13 -1 0 15
-28 23 -36 9z"/>
<path d="M1126 197 c3 -10 9 -15 12 -12 3 3 0 11 -7 18 -10 9 -11 8 -5 -6z"/>
<path d="M1140 160 c0 -5 5 -10 10 -10 6 0 10 5 10 10 0 6 -4 10 -10 10 -5 0
-10 -4 -10 -10z"/>
<path d="M1450 146 c0 -2 7 -7 16 -10 8 -3 12 -2 9 4 -6 10 -25 14 -25 6z"/>
<path d="M1190 120 c0 -5 5 -10 11 -10 5 0 7 5 4 10 -3 6 -8 10 -11 10 -2 0
-4 -4 -4 -10z"/>
<path d="M1350 96 c7 -7 13 -7 20 0 6 6 3 10 -10 10 -13 0 -16 -4 -10 -10z"/>
<path d="M1319 53 c-13 -16 -12 -17 4 -4 16 13 21 21 13 21 -2 0 -10 -8 -17
-17z"/>
</g>
</svg>
